<?xml version="1.0" standalone="no"?><!DOCTYPE svg PUBLIC "-//W3C//DTD SVG 1.1//EN" "http://www.w3.org/Graphics/SVG/1.1/DTD/svg11.dtd"><svg width="200" height="200" viewBox="0 0 200 200" version="1.1" xmlns="http://www.w3.org/2000/svg" xmlns:xlink="http://www.w3.org/1999/xlink"><defs><style type="text/css"><![CDATA[
@font-face { font-family: ifont; src: url("//at.alicdn.com/t/font_1442373896_4754455.eot?#iefix") format("embedded-opentype"), url("//at.alicdn.com/t/font_1442373896_4754455.woff") format("woff"), url("//at.alicdn.com/t/font_1442373896_4754455.ttf") format("truetype"), url("//at.alicdn.com/t/font_1442373896_4754455.svg#ifont") format("svg"); }

]]></style></defs><g class="transform-group"><g transform="scale(0.1953125, 0.1953125)"><path d="M608.104313 12.334933l0 92.87834 194.789405 0L611.915106 310.803675c-146.796344-102.266152-370.669134-89.208764-503.779781 54.134945-144.828526 156.049079-134.659933 401.941372 21.451568 546.836413 155.977447 144.897088 399.049508 134.167722 544.018228-21.875217 133.103484-143.341662 143.974066-354.023012 12.561084-510.140653l200.723557-216.276788 0 220.511229 92.952019 0L979.841779 12.334933 608.104313 12.334933 608.104313 12.334933zM602.175277 823.700091c-106.851587 115.108644-287.391453 121.815393-402.569682 14.96176C84.562443 731.741703 77.784062 551.130206 184.783005 436.012352c106.851587-115.038036 287.390429-121.816416 402.576845-14.890128 115.03599 106.85261 121.673154 287.464107 14.82259 402.576845L602.175277 823.699068zM602.175277 823.700091" fill="#f4ea29"></path></g></g></svg>