<?xml version="1.0" standalone="no"?><!DOCTYPE svg PUBLIC "-//W3C//DTD SVG 1.1//EN" "http://www.w3.org/Graphics/SVG/1.1/DTD/svg11.dtd"><svg width="200" height="200" viewBox="0 0 200 200" version="1.1" xmlns="http://www.w3.org/2000/svg" xmlns:xlink="http://www.w3.org/1999/xlink"><defs><style type="text/css"><![CDATA[
@font-face { font-family: ifont; src: url("//at.alicdn.com/t/font_1442373896_4754455.eot?#iefix") format("embedded-opentype"), url("//at.alicdn.com/t/font_1442373896_4754455.woff") format("woff"), url("//at.alicdn.com/t/font_1442373896_4754455.ttf") format("truetype"), url("//at.alicdn.com/t/font_1442373896_4754455.svg#ifont") format("svg"); }

]]></style></defs><g class="transform-group"><g transform="scale(0.1953125, 0.1953125)"><path d="M768 352C768 192.96 639.04 64 480 64 320.96 64 192 192.96 192 352c0 148.096 112.192 268.672 256 284.736L448 704 320 704c-17.664 0-32 14.336-32 32S302.336 768 320 768l128 0 0 160C448 945.664 462.336 960 480 960S512 945.664 512 928L512 768l128 0c17.664 0 32-14.336 32-32S657.664 704 640 704L512 704 512 636.736C655.808 620.608 768 500.096 768 352zM256 352C256 228.48 356.48 128 480 128 603.52 128 704 228.48 704 352S603.52 576 480 576C356.48 576 256 475.52 256 352z" fill="#f4ea29"></path></g></g></svg>