<?xml version="1.0" standalone="no"?><!DOCTYPE svg PUBLIC "-//W3C//DTD SVG 1.1//EN" "http://www.w3.org/Graphics/SVG/1.1/DTD/svg11.dtd"><svg width="266.796875" height="200" viewBox="0 0 266.796875 200" version="1.1" xmlns="http://www.w3.org/2000/svg" xmlns:xlink="http://www.w3.org/1999/xlink"><defs><style type="text/css"><![CDATA[
@font-face { font-family: ifont; src: url("//at.alicdn.com/t/font_1442373896_4754455.eot?#iefix") format("embedded-opentype"), url("//at.alicdn.com/t/font_1442373896_4754455.woff") format("woff"), url("//at.alicdn.com/t/font_1442373896_4754455.ttf") format("truetype"), url("//at.alicdn.com/t/font_1442373896_4754455.svg#ifont") format("svg"); }

]]></style></defs><g class="transform-group"><g transform="scale(0.1953125, 0.1953125)"><path d="M1234.546119 491.774161 1144.554363 986.728789C1140.821068 1007.261961 1120.785977 1024 1099.825512 1024L265.507821 1024C244.526232 1024 224.689266 1007.279995 221.153527 986.654834L136.156179 490.836954C128.920652 492.280111 121.437601 493.037037 113.777778 493.037037 50.940056 493.037037 0 442.096981 0 379.259259 0 316.421537 50.940056 265.481481 113.777778 265.481481 176.6155 265.481481 227.555556 316.421537 227.555556 379.259259 227.555556 400.211721 221.892001 419.841403 212.012279 436.700919L425.119213 602.450735C441.730446 615.370581 461.600256 610.095673 469.605016 590.750834L626.11164 212.526497C591.919351 192.901746 568.888889 156.029288 568.888889 113.777778 568.888889 50.940056 619.828945 0 682.666667 0 745.504389 0 796.444444 50.940056 796.444444 113.777778 796.444444 156.029288 773.413983 192.901746 739.221694 212.526497L895.728318 590.750834C903.778475 610.205393 924.325243 616.375751 941.722226 604.777775L1166.552557 454.890894C1148.653151 434.787992 1137.777778 408.29366 1137.777778 379.259259 1137.777778 316.421537 1188.717833 265.481481 1251.555556 265.481481 1314.393278 265.481481 1365.333333 316.421537 1365.333333 379.259259 1365.333333 442.096981 1314.393278 493.037037 1251.555556 493.037037 1245.774924 493.037037 1240.094985 492.605952 1234.546119 491.774161L1234.546119 491.774161Z" fill="#f4ea29"></path></g></g></svg>